# xmcd CD database file
#
# Track frame offsets:
#	150
#	15697
#	32967
#	56482
#	78100
#	99462
#	117210
#	139110
#	157137
#	172152
#
# Disc length: 2462 seconds
#
# Revision: 2
# Processed by: cddbd v1.5.2PL0 Copyright (c) Steve Scherf et al.
# Submitted via: CDex 1.51
#
DISCID=80099c0a
DTITLE=YAPOOS - ダダダ イズム
DYEAR=1992
DGENRE=ロック
TTITLE0=君の代
TTITLE1=ビールス
TTITLE2=12階の一番奥
TTITLE3=急告
TTITLE4=私は好奇心の強い女
TTITLE5=ダダダ イズム
TTITLE6=NOT DEAD LUNA
TTITLE7=VIP ～ロシアよりYをこめて～
TTITLE8=コンドルが飛んでくる
TTITLE9=テーマ
EXTD=YEAR: 1992
EXTT0=
EXTT1=
EXTT2=
EXTT3=
EXTT4=
EXTT5=
EXTT6=
EXTT7=
EXTT8=
EXTT9=
PLAYORDER=
